<?xml version="1.0" encoding="UTF-8"?>
<!DOCTYPE svg PUBLIC "-//W3C//DTD SVG 1.1//EN" "http://www.w3.org/Graphics/SVG/1.1/DTD/svg11.dtd">
<!-- Creator: CorelDRAW 2020 (64-Bit) -->
<svg xmlns="http://www.w3.org/2000/svg" xml:space="preserve" width="1334px" height="312px" version="1.1" style="shape-rendering:geometricPrecision; text-rendering:geometricPrecision; image-rendering:optimizeQuality; fill-rule:evenodd; clip-rule:evenodd"
viewBox="0 0 1333.87 312.27"
 xmlns:xlink="http://www.w3.org/1999/xlink"
 xmlns:xodm="http://www.corel.com/coreldraw/odm/2003">
 <defs>
  <style type="text/css">
   <![CDATA[
    .fil1 {fill:#AB2923}
    .fil0 {fill:#AB2923;fill-rule:nonzero}
   ]]>
  </style>
 </defs>
 <g id="Layer_x0020_1">
  <metadata id="CorelCorpID_0Corel-Layer"/>
  <g id="_2807211424656">
   <path class="fil0" d="M139.83 88.4c-11.76,-17.48 -30.58,-28.23 -55.46,-28.23 -46.39,0 -84.37,37.65 -84.37,84.03 0,46.73 37.98,84.37 84.37,84.37 24.88,0 43.7,-10.76 55.46,-28.23l0 28.23 28.91 0 0 -168.4 -28.91 0 0 28.23zm-55.46 111.6c-30.59,0 -55.8,-24.87 -55.8,-55.8 0,-30.59 25.21,-55.46 55.8,-55.46 30.59,0 55.46,24.87 55.46,55.46 0,30.93 -24.87,55.8 -55.46,55.8z"/>
   <polygon class="fil0" points="190.68,228.57 194.05,228.57 215.22,228.57 218.25,228.57 218.25,60.17 190.68,60.17 "/>
   <path class="fil0" d="M240.19 177.29l0 0.37 0 47.21 0 3.7 3.7 0 19.83 0 4.03 0 0 -3.7 0 -47.21 0 -0.37 0 -44.18c0,-25.21 20.51,-45.38 45.38,-45.38 25.21,0 45.72,20.5 45.72,45.38l0 1.34 0 42.84 0 0.37 0 47.21 0 3.7 3.69 0 19.84 0 4.03 0 0 -3.7 0 -47.21 0 -0.37 0 -40.48 0 -2.69 0 -1.01c0,-25.21 20.51,-45.38 45.38,-45.38 25.21,0 45.71,20.5 45.71,45.38l0 0.67 0 43.51 0 0.37 0 47.21 0 3.7 3.7 0 19.83 0 4.04 0 0 -3.7 0 -47.21 0 -0.37 0 -40.48 0 -1.01 0 -2.69c0,-19.5 -7.73,-37.65 -21.52,-51.77 -13.78,-13.78 -32.26,-21.17 -51.76,-21.17 -27.56,0 -44.37,19.16 -54.12,38.32 -3.36,-6.06 -7.73,-11.77 -12.77,-17.15 -13.78,-13.78 -32.27,-21.17 -51.77,-21.17 -19.49,0 -34.62,14.11 -45.38,30.25l0 -26.56 0 -3.69 -4.03 0 -19.83 0 -3.7 0 0 3.69 0 113.43z"/>
   <path class="fil0" d="M568.37 200.67c-9.08,0 -16.81,-7.39 -16.81,-16.47l0 -99.49 39.33 0 0 -24.54 -39.33 0 0 -32.27 0 -3.7 -3.7 0 -20.17 0 -3.69 0 0 3.7 0 32.27 0 24.54 0 99.49c0,24.54 19.83,44.37 44.37,44.37l22.52 0 0 -27.9 -22.52 0z"/>
   <path class="fil1" d="M204.47 0c11.74,0 21.27,9.53 21.27,21.28 0,11.74 -9.53,21.27 -21.27,21.27 -11.75,0 -21.28,-9.53 -21.28,-21.27 0,-11.75 9.53,-21.28 21.28,-21.28z"/>
   <path class="fil0" d="M984.65 88.4c-11.77,-17.48 -30.59,-28.23 -55.46,-28.23 -46.73,0 -84.37,37.65 -84.37,84.03 0,46.73 37.64,84.37 84.37,84.37 24.87,0 43.69,-10.76 55.46,-28.23l0 27.56c0,0 0,0 0,0 0,30.92 -31.6,55.8 -62.19,55.8 -19.83,0 -37.31,-10.42 -47.06,-26.22l-25.88 12.77c14.46,25.21 41.68,42.02 72.94,42.02 46.05,0 90.09,-37.31 90.76,-83.03l0 -1.34c0,0 0,0 0,0l0 -167.73 -28.57 0 0 28.23zm-55.46 111.6c-30.93,0 -55.8,-24.87 -55.8,-55.8 0,-30.59 24.87,-55.46 55.8,-55.46 30.58,0 55.46,24.87 55.46,55.46 0,30.93 -24.88,55.8 -55.46,55.8z"/>
   <path class="fil0" d="M1117.46 60.17c-22.52,0 -43.36,8.74 -59.5,24.54 -15.8,16.13 -24.54,37.31 -24.54,59.49 0,22.52 8.74,43.7 24.54,59.83 16.14,15.8 36.98,24.54 59.5,24.54 15.46,0 30.25,-4.03 43.36,-11.76 12.43,-7.73 22.85,-18.49 30.25,-31.26l-24.2 -13.45c-10.08,17.82 -28.91,28.91 -49.41,28.91 -27.9,0 -51.1,-20.17 -55.8,-48.74l132.24 0 7.59 0 0.34 0 0 -7.2c0,-0.29 0,-0.58 0,-0.87l-0.01 -0.15c-0.04,-22.13 -8.77,-43.25 -24.53,-59.34 -16.14,-15.8 -37.31,-24.54 -59.83,-24.54zm-54.12 67.56c7.06,-23.19 28.91,-40 54.12,-40 25.54,0 47.06,16.81 54.45,40l-108.57 0z"/>
   <path class="fil0" d="M1264.8 200.67c-9.08,0 -16.81,-7.39 -16.81,-16.47l0 -99.49 39.33 0 0 -24.54 -39.33 0 0 -32.27 0 -3.7 -3.69 0 -20.17 0 -3.7 0 0 3.7 0 32.27 0 24.54 0 99.49c0,24.54 19.83,44.37 44.37,44.37l22.52 0 0 -27.9 -22.52 0z"/>
   <path class="fil1" d="M1319.92 200.67c1.89,0 3.69,0.38 5.34,1.06 1.71,0.71 3.24,1.74 4.53,3.03 1.28,1.28 2.32,2.82 3.03,4.53 0.68,1.65 1.05,3.45 1.05,5.33 0,1.89 -0.37,3.69 -1.05,5.33 -0.71,1.71 -1.75,3.25 -3.03,4.54 -1.29,1.28 -2.82,2.32 -4.53,3.02 -1.65,0.69 -3.45,1.06 -5.34,1.06 -1.88,0 -3.68,-0.37 -5.33,-1.06 -1.71,-0.7 -3.25,-1.74 -4.53,-3.02 -1.29,-1.29 -2.32,-2.83 -3.03,-4.54 -0.68,-1.64 -1.06,-3.44 -1.06,-5.33 0,-1.88 0.38,-3.68 1.06,-5.33 0.71,-1.71 1.74,-3.25 3.03,-4.53 1.28,-1.29 2.82,-2.32 4.53,-3.03 1.65,-0.68 3.45,-1.06 5.33,-1.06zm-6.1 21.81l0 -16.14 6.13 0c0.62,0 1.16,0.04 1.63,0.12 0.49,0.08 0.89,0.2 1.21,0.37 0.33,0.16 0.63,0.39 0.9,0.67 0.25,0.27 0.48,0.59 0.68,0.97 0.2,0.37 0.35,0.78 0.45,1.21 0.1,0.43 0.15,0.88 0.15,1.36 0,0.64 -0.08,1.22 -0.25,1.74 -0.17,0.54 -0.43,1.01 -0.78,1.42 -0.35,0.41 -0.77,0.75 -1.26,1.01 -0.24,0.12 -0.48,0.22 -0.75,0.31 0.16,0.13 0.29,0.26 0.41,0.4l0 0c0.26,0.31 0.51,0.64 0.74,0.99 0.23,0.34 0.45,0.71 0.65,1.09l2.58 4.91 -3.11 0 -1.83 -3.51c-0.34,-0.64 -0.63,-1.17 -0.87,-1.58 -0.24,-0.42 -0.44,-0.73 -0.6,-0.93 -0.15,-0.21 -0.3,-0.37 -0.45,-0.5 -0.13,-0.12 -0.26,-0.21 -0.38,-0.27 -0.12,-0.06 -0.28,-0.11 -0.46,-0.14 -0.19,-0.03 -0.43,-0.05 -0.69,-0.05l-1.54 0 0 6.98 -2.56 0 0 -0.43zm2.56 -9.21l3.23 0c0.39,0 0.72,-0.02 0.99,-0.06 0.27,-0.04 0.49,-0.11 0.66,-0.19 0.16,-0.08 0.31,-0.18 0.44,-0.3 0.13,-0.12 0.25,-0.26 0.35,-0.44 0.1,-0.17 0.18,-0.36 0.23,-0.55 0.05,-0.21 0.08,-0.43 0.08,-0.68 0,-0.34 -0.05,-0.65 -0.15,-0.91 -0.09,-0.25 -0.23,-0.47 -0.42,-0.65 -0.19,-0.18 -0.42,-0.32 -0.7,-0.41 -0.3,-0.1 -0.66,-0.15 -1.07,-0.15l-3.64 0 0 4.34zm11.73 -6.84c-1.06,-1.07 -2.34,-1.93 -3.76,-2.52 -1.36,-0.56 -2.85,-0.87 -4.43,-0.87 -1.57,0 -3.06,0.31 -4.43,0.87 -1.41,0.59 -2.69,1.45 -3.76,2.52 -1.07,1.07 -1.93,2.34 -2.51,3.76 -0.57,1.36 -0.88,2.86 -0.88,4.43 0,1.57 0.31,3.07 0.88,4.43 0.58,1.42 1.44,2.69 2.51,3.76 1.07,1.07 2.35,1.93 3.76,2.52 1.37,0.56 2.86,0.87 4.43,0.87 1.58,0 3.07,-0.31 4.43,-0.87 1.42,-0.59 2.7,-1.45 3.76,-2.52 1.07,-1.07 1.93,-2.34 2.52,-3.76 0.56,-1.36 0.88,-2.86 0.88,-4.43 0,-1.57 -0.32,-3.07 -0.88,-4.43 -0.59,-1.42 -1.45,-2.69 -2.52,-3.76z"/>
   <g>
    <path class="fil1" d="M717.68 36.02c62.5,0 113.17,50.67 113.17,113.17 0,46.21 -27.7,85.95 -67.4,103.53l-16.12 -36.47c25.72,-11.38 43.66,-37.12 43.66,-67.06 0,-40.49 -32.82,-73.31 -73.31,-73.31 -40.49,0 -73.31,32.82 -73.31,73.31 0,29.94 17.94,55.68 43.66,67.06l-16.11 36.47c-39.7,-17.58 -67.41,-57.32 -67.41,-103.53 0,-62.5 50.67,-113.17 113.17,-113.17z"/>
    <path class="fil1" d="M717.68 99.99c27.18,0 49.2,22.03 49.2,49.2 0,20.09 -12.04,37.37 -29.3,45.01l-19.9 -45.03 -19.9 45.03c-17.26,-7.64 -29.3,-24.92 -29.3,-45.01 0,-27.17 22.03,-49.2 49.2,-49.2z"/>
   </g>
  </g>
 </g>
</svg>
